<svg width="17" height="14" viewBox="0 0 17 14" fill="none" xmlns="http://www.w3.org/2000/svg">
<path d="M9.53838 2.85798L6.56856 8.03852L7.53107 9.72996L10.4927 4.53307L9.53838 2.85798ZM11.0027 5.42373L8.04113 10.6125L8.8062 11.9689H10.2623L12.5 8.05487L11.0027 5.42373ZM6.18191 2.93969L3.50823 7.6218H5.82815L9.04479 2L6.18191 2.93969ZM7.80255 11.9689L5.8117 8.49612L3.5 8.48793L5.48263 11.9689H7.80255Z" fill="black"/>
<path d="M2.11969 1.62676C2.11969 1.27285 2.40659 0.985901 2.76055 0.985901H3.25352V0H2.76055C1.86213 0 1.13379 0.728346 1.13379 1.62676V5.86619C1.13379 6.2201 0.846887 6.50705 0.492927 6.50705H0V7.49295H0.492974C0.846887 7.49295 1.13383 7.77985 1.13383 8.13381V12.3732C1.13383 13.2717 1.86218 14 2.7606 14H3.25357V13.0141H2.76055C2.40664 13.0141 2.11969 12.7272 2.11969 12.3732V8.13381C2.11987 7.70974 1.9535 7.30254 1.65629 7.00002C1.95345 6.6975 2.11987 6.2903 2.11969 5.86623V1.62676Z" fill="black"/>
<path d="M15.5106 6.50705C15.1567 6.50705 14.8697 6.22015 14.8697 5.86619V1.62676C14.8697 0.728346 14.1414 0 13.243 0H12.75V0.985901H13.243C13.5969 0.985901 13.8838 1.2728 13.8838 1.62676V5.86619C13.8837 6.29026 14.05 6.69745 14.3472 6.99998C14.0501 7.3025 13.8837 7.7097 13.8838 8.13376V12.3732C13.8838 12.7271 13.5969 13.0141 13.243 13.0141H12.75V14H13.243C14.1414 14 14.8697 13.2716 14.8697 12.3732V8.13381C14.8697 7.7799 15.1566 7.49295 15.5106 7.49295H16.0036V6.50705H15.5106Z" fill="black"/>
</svg>
